<svg
    xmlns="http://www.w3.org/2000/svg"
    width="43"
    height="43"
    fill="none">
    <path
        fill="#F07575"
        fill-rule="evenodd"
        d="M30.6.685h5.957v5.956H30.6v5.956h5.956v5.956H30.6v5.956h5.956v5.956H30.6v5.956h-5.957v-5.956h-5.956V24.51h5.957v5.956H30.6V24.51h-5.956v-5.956H30.6v-5.956h-5.955v5.956h-5.957v-5.956h5.956V6.641H30.6zm5.958 5.956h5.957v5.956h-5.957zm0 23.824h5.957v5.956h-5.957zm-.001 5.956H30.6v5.956h5.957zM12.73 30.465h5.957v5.956H12.73zm5.957-11.912H12.73v5.956h5.957zM12.73 6.641h5.957v5.956H12.73zm-.001 29.78H6.774v-5.956h5.956V24.51H6.773v5.956H.817v5.956h5.956v5.956h5.957zM6.773 12.597v5.956h5.957v-5.956zV6.641h5.956V.685H6.773v5.956H.817v5.956z"
        clip-rule="evenodd">
    </path>
</svg>